<svg xmlns="http://www.w3.org/2000/svg" xmlns:xlink="http://www.w3.org/1999/xlink" width="100%" zoomAndPan="magnify" viewBox="0 0 854.88 74.999997" height="auto" preserveAspectRatio="xMidYMid meet" version="1.0"><defs><g/><clipPath id="a73d3ccf95"><path d="M 404.792969 14.851562 L 450.089844 14.851562 L 450.089844 60.148438 L 404.792969 60.148438 Z M 404.792969 14.851562 " clip-rule="nonzero"/></clipPath><clipPath id="671dd89809"><path d="M 427.441406 14.851562 C 414.933594 14.851562 404.792969 24.992188 404.792969 37.5 C 404.792969 50.007812 414.933594 60.148438 427.441406 60.148438 C 439.949219 60.148438 450.089844 50.007812 450.089844 37.5 C 450.089844 24.992188 439.949219 14.851562 427.441406 14.851562 Z M 427.441406 14.851562 " clip-rule="nonzero"/></clipPath><clipPath id="bf6e71c784"><path d="M 410 24.988281 L 445 24.988281 L 445 48 L 410 48 Z M 410 24.988281 " clip-rule="nonzero"/></clipPath><clipPath id="42ca2f8c93"><path d="M 409.472656 47 L 445.40625 47 L 445.40625 50.144531 L 409.472656 50.144531 Z M 409.472656 47 " clip-rule="nonzero"/></clipPath><clipPath id="82c2b62aed"><path d="M 373 35.789062 L 376 35.789062 L 376 39.539062 L 373 39.539062 Z M 373 35.789062 " clip-rule="nonzero"/></clipPath><clipPath id="1e2e2addd4"><path d="M 371 37 L 378.578125 37 L 378.578125 38 L 371 38 Z M 371 37 " clip-rule="nonzero"/></clipPath><clipPath id="b48a740f07"><path d="M 39 35.789062 L 42 35.789062 L 42 39.539062 L 39 39.539062 Z M 39 35.789062 " clip-rule="nonzero"/></clipPath><clipPath id="236d4e9591"><path d="M 36.625 37 L 44 37 L 44 38 L 36.625 38 Z M 36.625 37 " clip-rule="nonzero"/></clipPath><clipPath id="bd70d6468e"><path d="M 813 35.789062 L 815 35.789062 L 815 39.539062 L 813 39.539062 Z M 813 35.789062 " clip-rule="nonzero"/></clipPath><clipPath id="58cbf9485a"><path d="M 811 37 L 818.253906 37 L 818.253906 38 L 811 38 Z M 811 37 " clip-rule="nonzero"/></clipPath><clipPath id="87b400ec8b"><path d="M 479 35.789062 L 481 35.789062 L 481 39.539062 L 479 39.539062 Z M 479 35.789062 " clip-rule="nonzero"/></clipPath><clipPath id="c88e1fec05"><path d="M 476.300781 37 L 484 37 L 484 38 L 476.300781 38 Z M 476.300781 37 " clip-rule="nonzero"/></clipPath></defs><g clip-path="url(#a73d3ccf95)"><g clip-path="url(#671dd89809)"><path fill="#243b4d" d="M 404.792969 14.851562 L 450.089844 14.851562 L 450.089844 60.148438 L 404.792969 60.148438 Z M 404.792969 14.851562 " fill-opacity="1" fill-rule="nonzero"/></g></g><g clip-path="url(#bf6e71c784)"><path fill="#d0decb" d="M 443.152344 24.988281 L 411.726562 24.988281 C 411.160156 24.988281 410.683594 25.464844 410.683594 26.035156 L 410.683594 46.351562 C 410.683594 46.917969 411.160156 47.394531 411.726562 47.394531 L 443.152344 47.394531 C 443.722656 47.394531 444.195312 46.917969 444.195312 46.351562 L 444.195312 26.035156 C 444.242188 25.464844 443.769531 24.988281 443.152344 24.988281 Z M 442.820312 45.636719 L 412.058594 45.636719 L 412.058594 26.746094 L 442.773438 26.746094 L 442.773438 45.636719 Z M 442.820312 45.636719 " fill-opacity="1" fill-rule="nonzero"/></g><g clip-path="url(#42ca2f8c93)"><path fill="#d0decb" d="M 445.289062 47.867188 L 429.71875 47.867188 L 428.769531 48.296875 L 426.0625 48.296875 L 425.113281 47.867188 L 409.59375 47.867188 C 409.59375 47.867188 409.496094 48.769531 411.109375 50.003906 L 443.816406 50.003906 C 445.382812 48.722656 445.289062 47.867188 445.289062 47.867188 Z M 445.289062 47.867188 " fill-opacity="1" fill-rule="nonzero"/></g><g fill="#d0decb" fill-opacity="1"><g transform="translate(413.068644, 39.260699)"><g><path d="M 4.484375 -3.9375 L 1.703125 -2.921875 L 4.484375 -1.90625 L 4.484375 -0.859375 L 0.515625 -2.375 L 0.515625 -3.453125 L 4.484375 -4.96875 Z M 4.484375 -3.9375 "/></g></g></g><g fill="#d0decb" fill-opacity="1"><g transform="translate(418.052681, 39.260699)"><g><path d="M 3.484375 0.09375 C 2.890625 0.09375 2.351562 -0.03125 1.875 -0.28125 C 1.394531 -0.539062 1.015625 -0.898438 0.734375 -1.359375 C 0.460938 -1.816406 0.328125 -2.335938 0.328125 -2.921875 C 0.328125 -3.492188 0.460938 -4.007812 0.734375 -4.46875 C 1.015625 -4.925781 1.394531 -5.28125 1.875 -5.53125 C 2.351562 -5.789062 2.890625 -5.921875 3.484375 -5.921875 C 3.992188 -5.921875 4.453125 -5.832031 4.859375 -5.65625 C 5.265625 -5.476562 5.609375 -5.222656 5.890625 -4.890625 L 5.015625 -4.09375 C 4.628906 -4.550781 4.144531 -4.78125 3.5625 -4.78125 C 3.195312 -4.78125 2.875 -4.703125 2.59375 -4.546875 C 2.3125 -4.390625 2.085938 -4.164062 1.921875 -3.875 C 1.765625 -3.59375 1.6875 -3.273438 1.6875 -2.921875 C 1.6875 -2.554688 1.765625 -2.234375 1.921875 -1.953125 C 2.085938 -1.671875 2.3125 -1.445312 2.59375 -1.28125 C 2.875 -1.125 3.195312 -1.046875 3.5625 -1.046875 C 4.144531 -1.046875 4.628906 -1.273438 5.015625 -1.734375 L 5.890625 -0.9375 C 5.609375 -0.601562 5.257812 -0.347656 4.84375 -0.171875 C 4.4375 0.00390625 3.984375 0.09375 3.484375 0.09375 Z M 3.484375 0.09375 "/></g></g></g><g fill="#d0decb" fill-opacity="1"><g transform="translate(424.151679, 39.260699)"><g><path d="M 2.8125 -2.296875 L 2.03125 -1.46875 L 2.03125 0 L 0.6875 0 L 0.6875 -5.828125 L 2.03125 -5.828125 L 2.03125 -3.109375 L 4.609375 -5.828125 L 6.109375 -5.828125 L 3.703125 -3.234375 L 6.25 0 L 4.6875 0 Z M 2.8125 -2.296875 "/></g></g></g><g fill="#d0decb" fill-opacity="1"><g transform="translate(430.308921, 39.260699)"><g><path d="M 0 0 L 4.171875 0 L 4.171875 0.75 L 0 0.75 Z M 0 0 "/></g></g></g><g fill="#d0decb" fill-opacity="1"><g transform="translate(434.469221, 39.260699)"><g/></g></g><g fill="#d0decb" fill-opacity="1"><g transform="translate(436.823951, 39.260699)"><g><path d="M 4.484375 -3.453125 L 4.484375 -2.375 L 0.515625 -0.859375 L 0.515625 -1.90625 L 3.296875 -2.921875 L 0.515625 -3.9375 L 0.515625 -4.96875 Z M 4.484375 -3.453125 "/></g></g></g><path fill="#243b4d" d="M 374.34375 37.011719 L 40.859375 37.011719 C 40.242188 37.011719 39.800781 37.273438 39.800781 37.539062 C 39.800781 37.804688 40.328125 38.070312 40.859375 38.070312 L 374.433594 38.070312 C 375.050781 38.070312 375.492188 37.804688 375.492188 37.539062 C 375.492188 37.1875 374.960938 37.011719 374.34375 37.011719 Z M 374.34375 37.011719 " fill-opacity="1" fill-rule="nonzero"/><g clip-path="url(#82c2b62aed)"><path fill="#243b4d" d="M 374.609375 35.953125 L 374.960938 36.746094 C 375.050781 37.011719 375.136719 37.273438 375.3125 37.539062 L 374.960938 38.332031 C 374.875 38.597656 374.695312 38.863281 374.609375 39.125 C 374.519531 38.863281 374.34375 38.597656 374.253906 38.332031 L 373.902344 37.539062 C 374.078125 37.273438 374.167969 37.011719 374.253906 36.746094 Z M 374.609375 35.953125 " fill-opacity="1" fill-rule="nonzero"/></g><g clip-path="url(#1e2e2addd4)"><path fill="#243b4d" d="M 378.578125 37.539062 L 376.8125 37.363281 C 376.195312 37.273438 375.578125 37.273438 375.050781 37.1875 L 373.285156 37.363281 C 372.667969 37.449219 372.050781 37.449219 371.519531 37.539062 C 372.140625 37.628906 372.757812 37.628906 373.285156 37.714844 L 375.050781 37.890625 C 375.667969 37.804688 376.285156 37.804688 376.8125 37.714844 Z M 378.578125 37.539062 " fill-opacity="1" fill-rule="nonzero"/></g><g clip-path="url(#b48a740f07)"><path fill="#243b4d" d="M 40.59375 39.039062 L 40.242188 38.246094 C 40.152344 37.980469 40.066406 37.714844 39.890625 37.449219 L 40.242188 36.65625 C 40.328125 36.394531 40.507812 36.128906 40.59375 35.863281 C 40.683594 36.128906 40.859375 36.394531 40.945312 36.65625 L 41.300781 37.449219 C 41.125 37.714844 41.035156 37.980469 40.945312 38.246094 Z M 40.59375 39.039062 " fill-opacity="1" fill-rule="nonzero"/></g><g clip-path="url(#236d4e9591)"><path fill="#243b4d" d="M 36.625 37.539062 L 38.390625 37.714844 C 39.007812 37.804688 39.625 37.804688 40.152344 37.890625 L 41.917969 37.714844 C 42.535156 37.628906 43.152344 37.628906 43.679688 37.539062 C 43.0625 37.449219 42.445312 37.449219 41.917969 37.363281 L 40.152344 37.1875 C 39.535156 37.273438 38.917969 37.273438 38.390625 37.363281 Z M 36.625 37.539062 " fill-opacity="1" fill-rule="nonzero"/></g><path fill="#243b4d" d="M 814.019531 37.011719 L 480.535156 37.011719 C 479.917969 37.011719 479.476562 37.273438 479.476562 37.539062 C 479.476562 37.804688 480.007812 38.070312 480.535156 38.070312 L 814.109375 38.070312 C 814.726562 38.070312 815.167969 37.804688 815.167969 37.539062 C 815.167969 37.1875 814.636719 37.011719 814.019531 37.011719 Z M 814.019531 37.011719 " fill-opacity="1" fill-rule="nonzero"/><g clip-path="url(#bd70d6468e)"><path fill="#243b4d" d="M 814.285156 35.953125 L 814.636719 36.746094 C 814.726562 37.011719 814.816406 37.273438 814.992188 37.539062 L 814.636719 38.332031 C 814.550781 38.597656 814.375 38.863281 814.285156 39.125 C 814.199219 38.863281 814.019531 38.597656 813.933594 38.332031 L 813.578125 37.539062 C 813.757812 37.273438 813.84375 37.011719 813.933594 36.746094 Z M 814.285156 35.953125 " fill-opacity="1" fill-rule="nonzero"/></g><g clip-path="url(#58cbf9485a)"><path fill="#243b4d" d="M 818.253906 37.539062 L 816.492188 37.363281 C 815.875 37.273438 815.253906 37.273438 814.726562 37.1875 L 812.960938 37.363281 C 812.34375 37.449219 811.726562 37.449219 811.199219 37.539062 C 811.816406 37.628906 812.433594 37.628906 812.960938 37.714844 L 814.726562 37.890625 C 815.34375 37.804688 815.960938 37.804688 816.492188 37.714844 Z M 818.253906 37.539062 " fill-opacity="1" fill-rule="nonzero"/></g><g clip-path="url(#87b400ec8b)"><path fill="#243b4d" d="M 480.273438 39.039062 L 479.917969 38.246094 C 479.832031 37.980469 479.742188 37.714844 479.566406 37.449219 L 479.917969 36.65625 C 480.007812 36.394531 480.183594 36.128906 480.273438 35.863281 C 480.359375 36.128906 480.535156 36.394531 480.625 36.65625 L 480.976562 37.449219 C 480.800781 37.714844 480.710938 37.980469 480.625 38.246094 Z M 480.273438 39.039062 " fill-opacity="1" fill-rule="nonzero"/></g><g clip-path="url(#c88e1fec05)"><path fill="#243b4d" d="M 476.300781 37.539062 L 478.066406 37.714844 C 478.683594 37.804688 479.300781 37.804688 479.832031 37.890625 L 481.59375 37.714844 C 482.210938 37.628906 482.828125 37.628906 483.359375 37.539062 C 482.742188 37.449219 482.125 37.449219 481.59375 37.363281 L 479.832031 37.1875 C 479.214844 37.273438 478.597656 37.273438 478.066406 37.363281 Z M 476.300781 37.539062 " fill-opacity="1" fill-rule="nonzero"/></g></svg>