<svg xmlns="http://www.w3.org/2000/svg" xmlns:xlink="http://www.w3.org/1999/xlink" width="320" zoomAndPan="magnify" viewBox="0 0 240 239.999995" height="320" preserveAspectRatio="xMidYMid meet" version="1.0"><defs><g/><clipPath id="6f73168d6d"><path d="M 120 0 C 53.726562 0 0 53.726562 0 120 C 0 186.273438 53.726562 240 120 240 C 186.273438 240 240 186.273438 240 120 C 240 53.726562 186.273438 0 120 0 Z M 120 0 " clip-rule="nonzero"/></clipPath><clipPath id="b1f60f15ab"><path d="M 31 53.714844 L 209 53.714844 L 209 173 L 31 173 Z M 31 53.714844 " clip-rule="nonzero"/></clipPath><clipPath id="6fbb46c7d9"><path d="M 25 174 L 215 174 L 215 186.988281 L 25 186.988281 Z M 25 174 " clip-rule="nonzero"/></clipPath></defs><g clip-path="url(#6f73168d6d)"><rect x="-24" width="288" fill="#243b4d" y="-23.999999" height="287.999994" fill-opacity="1"/></g><g clip-path="url(#b1f60f15ab)"><path fill="#d0decb" d="M 203.246094 53.714844 L 36.753906 53.714844 C 33.734375 53.714844 31.21875 56.230469 31.21875 59.246094 L 31.21875 166.890625 C 31.21875 169.910156 33.734375 172.421875 36.753906 172.421875 L 203.246094 172.421875 C 206.265625 172.421875 208.78125 169.910156 208.78125 166.890625 L 208.78125 59.246094 C 209.03125 56.230469 206.515625 53.714844 203.246094 53.714844 Z M 201.488281 163.117188 L 38.511719 163.117188 L 38.511719 63.019531 L 201.234375 63.019531 L 201.234375 163.117188 Z M 201.488281 163.117188 " fill-opacity="1" fill-rule="nonzero"/></g><g clip-path="url(#6fbb46c7d9)"><path fill="#d0decb" d="M 214.566406 174.9375 L 132.070312 174.9375 L 127.042969 177.203125 L 112.707031 177.203125 L 107.675781 174.9375 L 25.433594 174.9375 C 25.433594 174.9375 24.933594 179.71875 33.484375 186.257812 L 206.769531 186.257812 C 215.066406 179.464844 214.566406 174.9375 214.566406 174.9375 Z M 214.566406 174.9375 " fill-opacity="1" fill-rule="nonzero"/></g><g fill="#d0decb" fill-opacity="1"><g transform="translate(43.854885, 129.328885)"><g><path d="M 23.71875 -20.8125 L 9.046875 -15.4375 L 23.71875 -10.09375 L 23.71875 -4.578125 L 2.734375 -12.5625 L 2.734375 -18.296875 L 23.71875 -26.28125 Z M 23.71875 -20.8125 "/></g></g></g><g fill="#d0decb" fill-opacity="1"><g transform="translate(70.262308, 129.328885)"><g><path d="M 18.4375 0.53125 C 15.289062 0.53125 12.441406 -0.148438 9.890625 -1.515625 C 7.347656 -2.890625 5.347656 -4.785156 3.890625 -7.203125 C 2.441406 -9.628906 1.71875 -12.375 1.71875 -15.4375 C 1.71875 -18.488281 2.441406 -21.226562 3.890625 -23.65625 C 5.347656 -26.082031 7.347656 -27.976562 9.890625 -29.34375 C 12.441406 -30.707031 15.300781 -31.390625 18.46875 -31.390625 C 21.144531 -31.390625 23.5625 -30.921875 25.71875 -29.984375 C 27.882812 -29.046875 29.703125 -27.691406 31.171875 -25.921875 L 26.59375 -21.6875 C 24.5 -24.101562 21.910156 -25.3125 18.828125 -25.3125 C 16.921875 -25.3125 15.21875 -24.890625 13.71875 -24.046875 C 12.21875 -23.210938 11.046875 -22.046875 10.203125 -20.546875 C 9.367188 -19.046875 8.953125 -17.34375 8.953125 -15.4375 C 8.953125 -13.519531 9.367188 -11.8125 10.203125 -10.3125 C 11.046875 -8.8125 12.21875 -7.644531 13.71875 -6.8125 C 15.21875 -5.976562 16.921875 -5.5625 18.828125 -5.5625 C 21.910156 -5.5625 24.5 -6.78125 26.59375 -9.21875 L 31.171875 -4.984375 C 29.703125 -3.191406 27.878906 -1.820312 25.703125 -0.875 C 23.523438 0.0625 21.101562 0.53125 18.4375 0.53125 Z M 18.4375 0.53125 "/></g></g></g><g fill="#d0decb" fill-opacity="1"><g transform="translate(102.57724, 129.328885)"><g><path d="M 14.90625 -12.125 L 10.765625 -7.796875 L 10.765625 0 L 3.65625 0 L 3.65625 -30.859375 L 10.765625 -30.859375 L 10.765625 -16.453125 L 24.421875 -30.859375 L 32.359375 -30.859375 L 19.578125 -17.109375 L 33.109375 0 L 24.78125 0 Z M 14.90625 -12.125 "/></g></g></g><g fill="#d0decb" fill-opacity="1"><g transform="translate(135.200773, 129.328885)"><g><path d="M 0 0 L 22.046875 0 L 22.046875 3.96875 L 0 3.96875 Z M 0 0 "/></g></g></g><g fill="#d0decb" fill-opacity="1"><g transform="translate(157.243706, 129.328885)"><g/></g></g><g fill="#d0decb" fill-opacity="1"><g transform="translate(169.720008, 129.328885)"><g><path d="M 23.71875 -18.296875 L 23.71875 -12.5625 L 2.734375 -4.578125 L 2.734375 -10.09375 L 17.421875 -15.4375 L 2.734375 -20.8125 L 2.734375 -26.28125 Z M 23.71875 -18.296875 "/></g></g></g></svg>